<?xml version="1.0" standalone="no"?><!DOCTYPE svg PUBLIC "-//W3C//DTD SVG 1.1//EN" "http://www.w3.org/Graphics/SVG/1.1/DTD/svg11.dtd"><svg t="1702989384476" class="icon" viewBox="0 0 1024 1024" version="1.1" xmlns="http://www.w3.org/2000/svg" p-id="4884" xmlns:xlink="http://www.w3.org/1999/xlink" width="128" height="128"><path d="M169.48 18.28c17.92-3.44 36.24-2.36 54.4-2.48 201.36 0 402.76 0.04 604.16 0 34.32 0.4 68.28 12.44 95.72 32.96 43.6 31.6 70.44 85.2 69.2 139.08-0.12 201.28 0 402.56-0.04 603.84-1.92 42.72-21.2 84-51.48 114-32.56 30.44-76.72 49.64-121.68 47.56-210.56-0.2-421.16 0.04-631.72-0.08-48.68-3.76-95.52-29.64-124.08-69.36-23.04-30.72-33.8-69.44-33.48-107.6 0.08-196.08-0.08-392.2 0.08-588.28 0.36-40.56 14.08-81.4 40.8-112.24C96.2 46 131.56 25.64 169.48 18.28M258.8 254.76c-0.56 140.68 0.12 281.36-0.36 422.04 20.24 4 41 1.04 61.48 2 10.12-0.8 22.28 2.92 30.08-5.48-1.68-42.76 0.36-85.6-1.04-128.36 54.48 1.72 114.52 2.4 160.76-30.92 34.4-23 54.44-64.8 53.64-105.88 1.4-28.12-1.28-57.6-16.28-82.16-25.16-47-79.84-69.16-130.8-72.12-52.48-1.72-105 0.4-157.48 0.88m444.28 136.88c-0.12-12.72-2.56-25.2-6.92-37.16-25.44 0.24-50.92-0.28-76.36 0.16-5.6 0.2-7.8 3.24-6.6 9.16 2.72 104.32 0.8 208.72 1.16 313.08 15 3.4 30.4 1.52 45.6 1.88 16.56-0.4 33.32 1.6 49.64-1.96-0.28-69.52 0-139.04-0.16-208.52 28.32-24.88 68.36-28.28 104.4-29.92-0.72-29-0.32-58-0.24-87-41.44-10.32-79.44 16.4-110.52 40.28z" fill="#000000" p-id="4885"></path><path d="M349.16 466.84c0.56-44.16 0.12-88.32 0.24-132.52 32.84 0.48 69.12-5.28 98.28 13.56 35.36 22.44 35.32 83.04-1.64 103.92-29.28 17.32-64.24 14.8-96.88 15.04z" fill="#000000" p-id="4886"></path></svg>