<?xml version="1.0" encoding="utf-8"?>
<!-- Generator: Adobe Illustrator 27.0.0, SVG Export Plug-In . SVG Version: 6.00 Build 0)  -->
<svg version="1.1" id="图层_1" xmlns="http://www.w3.org/2000/svg" xmlns:xlink="http://www.w3.org/1999/xlink" x="0px" y="0px"
	 viewBox="0 0 24 25" style="enable-background:new 0 0 24 25;" xml:space="preserve">
<style type="text/css">
	.st0{fill:#B000EA;}
	.st1{fill:#F9007D;}
	.st2{fill:#00F4B4;}
</style>
<path class="st0" d="M15.3,20.3c-1.2,0-2.9-0.8-4.2-4.8l-0.7-2.2l-2.2-0.7c-4-1.3-4.8-3-4.8-4.2c0-1.2,0.8-2.8,4.8-4.2l8.5-2.8
	c2.1-0.7,3.9-0.5,5,0.6s1.3,2.9,0.6,5l-2.8,8.5C18.2,19.5,16.5,20.3,15.3,20.3z M8.7,5.7C5.9,6.7,5,7.8,5,8.5c0,0.7,1,1.8,3.8,2.7
	l2.5,0.8c0.2,0.1,0.4,0.2,0.5,0.5l0.8,2.5c0.9,2.8,2,3.8,2.8,3.8c0.7,0,1.8-1,2.8-3.8l2.8-8.5c0.5-1.5,0.4-2.8-0.2-3.4
	s-1.9-0.7-3.4-0.2L8.7,5.7z"/>
<path class="st1" d="M12.2,12.5c-0.2,0-0.4-0.1-0.5-0.2c-0.3-0.3-0.3-0.8,0-1.1l3.6-3.6c0.3-0.3,0.8-0.3,1.1,0
	c0.3,0.3,0.3,0.8,0,1.1l-3.6,3.6C12.6,12.4,12.4,12.5,12.2,12.5z"/>
<polygon class="st2" points="19.4,3.8 18.9,5.8 20.3,7.3 18.3,7.4 17.2,9.1 16.5,7.3 14.6,6.8 16.1,5.5 15.9,3.6 17.6,4.6 "/>
</svg>
