<?xml version="1.0" encoding="utf-8"?>
<!-- Generator: Adobe Illustrator 27.0.0, SVG Export Plug-In . SVG Version: 6.00 Build 0)  -->
<svg version="1.1" id="图层_1" xmlns="http://www.w3.org/2000/svg" xmlns:xlink="http://www.w3.org/1999/xlink" x="0px" y="0px"
	 viewBox="0 0 16 17" style="enable-background:new 0 0 16 17;" xml:space="preserve">
<style type="text/css">
	.st0{fill:#A5A835;}
</style>
<path class="st0" d="M14.9,4.3c-0.7-1.2-1.7-2.2-2.9-2.9c-1.2-0.7-2.6-1.1-4-1.1S5.2,0.7,4,1.4C2.8,2.1,1.8,3.1,1.1,4.3S0,6.9,0,8.3
	s0.4,2.8,1.1,4c0.7,1.2,1.7,2.2,2.9,2.9c1.2,0.7,2.6,1.1,4,1.1s2.8-0.4,4-1.1c1.2-0.7,2.2-1.7,2.9-2.9c0.7-1.2,1.1-2.6,1.1-4
	S15.6,5.5,14.9,4.3z M8,1.6c1.6,0,3,0.5,4.3,1.5C11.5,4.1,10.4,4.9,9,5.5C8.2,4,7.3,2.8,6.4,1.9C6.9,1.7,7.5,1.6,8,1.6z M2.8,4.1
	C3.4,3.4,4.1,2.8,5,2.4c1,1,1.9,2.2,2.7,3.6C6,6.4,4.4,6.7,2.6,6.7c-0.5,0-0.8,0-1,0C1.8,5.7,2.2,4.9,2.8,4.1z M1.3,8.3
	c0,0,0-0.1,0-0.2s0-0.1,0-0.2c0.2,0,0.5,0,0.9,0c2.1,0,4.1-0.3,6-0.9c0.1,0.3,0.3,0.6,0.5,1C7.6,8.4,6.5,8.9,5.4,9.8
	c-1.1,0.9-1.9,1.9-2.4,2.9C1.9,11.4,1.3,10,1.3,8.3z M8,15c-1.5,0-2.9-0.5-4.1-1.4c0.5-0.9,1.2-1.9,2.2-2.7c1-0.9,2-1.4,3-1.6
	c0.6,1.7,1,3.5,1.2,5.3C9.6,14.8,8.8,15,8,15z M13.7,11.8c-0.5,0.9-1.2,1.6-2.1,2.1c-0.2-1.7-0.6-3.3-1.1-4.9C11.2,9,11.9,9,12.5,9
	c0.6,0,1.3,0,2.1,0.1C14.5,10,14.2,11,13.7,11.8z M12.7,7.8c-0.9,0-1.8,0-2.6,0.1C9.9,7.4,9.7,7,9.6,6.6C11.2,5.9,12.4,5,13.1,4
	c1,1.1,1.5,2.4,1.6,3.9C14,7.8,13.3,7.8,12.7,7.8z"/>
</svg>
