<?xml version="1.0" standalone="no"?><!DOCTYPE svg PUBLIC "-//W3C//DTD SVG 1.1//EN" "http://www.w3.org/Graphics/SVG/1.1/DTD/svg11.dtd"><svg t="1702975743283" class="icon" viewBox="0 0 1024 1024" version="1.1" xmlns="http://www.w3.org/2000/svg" p-id="21054" xmlns:xlink="http://www.w3.org/1999/xlink" width="128" height="128"><path d="M136.533333 512c0 206.813867 168.6528 375.466667 375.466667 375.466667s375.466667-168.6528 375.466667-375.466667S720.827733 136.533333 512 136.533333C305.186133 136.533333 136.533333 305.186133 136.533333 512z" fill="#F8C913" p-id="21055"></path><path d="M609.8944 112.128c-13.994667 16.5888-43.963733 31.1296-83.968 41.506133-67.925333 16.5888-81.92 20.753067-101.922133 33.211734a147.114667 147.114667 0 0 0-33.9968 24.917333c-15.9744 14.506667-27.989333 41.472-23.9616 49.7664 1.979733 4.164267 39.936 60.2112 85.947733 128.682667 45.9776 66.389333 89.941333 132.778667 99.9424 147.3536 10.001067 14.506667 15.9744 26.965333 15.9744 26.965333 0 2.048-7.9872 0-15.9744-2.048-31.982933-10.410667-87.9616 0-127.931733 20.718933-30.0032 16.5888-63.965867 51.882667-77.960534 80.930134-16.008533 33.211733-17.988267 78.848-6.007466 109.9776 12.014933 33.211733 37.9904 60.2112 71.953066 78.848 26.0096 14.5408 31.982933 14.5408 65.979734 16.622933 27.989333 2.048 43.963733 0 59.972266-4.130133 73.966933-22.869333 127.931733-83.012267 131.925334-153.6 1.979733-39.424-2.013867-51.882667-51.985067-143.189334-77.960533-141.1072-147.899733-269.755733-147.899733-271.837866 0 0 13.994667-2.048 31.982933-4.164267 51.950933-2.048 93.934933-29.013333 115.9168-72.635733 10.001067-18.670933 10.001067-24.917333 10.001067-64.3072 0-24.917333-1.979733-47.752533-3.9936-49.834667-2.013867-6.212267-3.9936-4.130133-13.994667 6.2464z" fill="#02B053" p-id="21056"></path></svg>